<svg xmlns="http://www.w3.org/2000/svg" xmlns:xlink="http://www.w3.org/1999/xlink" x="0px" y="0px" viewBox="0 0 1897 530" style="enable-background:new 0 0 1897 530;" xml:space="preserve">
    <g>
	<path d="M33.16,307.49L0.53,155.74l-0.08-0.71c-0.1-0.96-0.04-1.93,0.18-2.92c-0.12-4.18,4.52-6.76,13.93-7.75l6.93-0.73 c9.56-1.01,14.68,0.96,15.36,5.88l11.19,88.01c0.61,4.29,1.42,11.21,2.42,20.77c0.51,3.33,1.12,8.34,1.82,15.03l2.73-17.69 c0.37-2.62,0.87-5.85,1.52-9.71c0.64-3.85,1.08-7,1.3-9.44l13.43-93.02c0.28-1.96,1.41-3.41,3.41-4.35 c1.99-0.93,4.99-1.61,8.97-2.03l9.56-1.01c3.98-0.42,6.97-0.37,8.96,0.15c1.99,0.52,3.16,1.72,3.52,3.62l15.5,89.98 c0.87,5.23,2.05,13.4,3.54,24.52l1.73,11.9c1.25-8.03,2.31-16.27,3.2-24.75l1.56-12.73l11.53-90.4c0.6-5.06,5.68-8.09,15.24-9.09 l5.5-0.58c9.4-0.99,14.16,0.61,14.28,4.78c0.03,0.32,0.05,0.84,0.04,1.57c-0.01,0.73-0.13,1.43-0.38,2.09l-30.49,158.38 c-0.6,3.45-4.81,5.59-12.62,6.4l-13.39,1.41c-3.19,0.33-5.87,0.17-8.03-0.49c-2.17-0.66-3.41-1.77-3.74-3.36l-17.48-83.48 l-2.69-25.58l-2.81,26.16l-15.28,86.92c-0.47,1.66-1.82,3.06-4.03,4.17c-2.22,1.12-4.92,1.84-8.11,2.18l-13.39,1.41 C37.91,312.07,33.83,310.8,33.16,307.49z"/>
	<path d="M193.77,287.95l0.18-154.71c-0.08-5.31,4.51-8.45,13.75-9.42l10.04-1.06c9.09-0.95,13.66,1.22,13.74,6.54L231.31,284 c0.07,5.31-4.43,8.44-13.51,9.4l-10.04,1.06C198.51,295.43,193.85,293.26,193.77,287.95z"/>
	<path d="M261.83,285.75c-1.35-1.39-2.05-3.77-2.08-7.15l0.2-149.88c-0.04-3.38,0.67-5.91,2.1-7.59c1.43-1.68,3.67-2.68,6.69-3 l70.53-7.41c3.98-0.42,6.28,2.24,6.88,7.98l0.11,3.37l0.06,7.49c0.2,8.04-2.17,12.31-7.11,12.83l-42.08,4.42l0.06,35.04l37.3-3.92 c3.98-0.42,6.28,2.24,6.88,7.98l0.11,3.37l0.06,7.49c0.2,8.04-2.17,12.31-7.11,12.83l-37.29,3.92l0,39.16l42.32-4.45 c2.07-0.22,3.61,0.31,4.63,1.57c1.02,1.26,1.68,3.33,1.98,6.2l0.14,3.61l0.06,7.49c0.2,8.04-2.09,12.31-6.87,12.81l-70.76,7.44 C265.45,287.67,263.18,287.14,261.83,285.75z"/>
	<path d="M413.54,270.17c-4.47-1.14-8.38-2.74-11.74-4.81c-3.36-2.06-5.19-4.53-5.49-7.4c-0.65-4.6,0.02-9.75,2-15.44 c1.98-5.68,4.56-8.69,7.75-9.03c1.11-0.12,2.69,0.28,4.72,1.2c5.56,2.32,10.04,3.9,13.43,4.75c3.39,0.85,7.24,1.05,11.55,0.6 c5.26-0.55,9.64-2.58,13.13-6.1c3.5-3.51,4.89-8.69,4.17-15.54c-0.5-4.78-2.42-8.48-5.76-11.12c-3.34-2.63-8.49-5.67-15.46-9.13 c-0.87-0.55-1.67-0.99-2.43-1.32c-0.76-0.32-1.4-0.62-1.91-0.88c-9.69-4.78-16.87-9.91-21.56-15.38 c-4.68-5.47-7.55-13.22-8.61-23.26c-1.16-11,0.18-20.85,4.02-29.55c3.84-8.7,9.6-15.63,17.27-20.79 c7.68-5.16,16.54-8.26,26.58-9.32c5.1-0.54,10.46-0.5,16.09,0.12s10.3,1.78,14.02,3.48c4.06,1.83,6.27,4.42,6.62,7.76 c0.45,4.3-0.1,9.07-1.64,14.31c-1.55,5.24-3.83,8.02-6.86,8.34c-1.43,0.15-3.88-0.15-7.35-0.92c-6.29-1.59-11.43-2.18-15.42-1.77 c-7.49,0.79-12.25,3.06-14.27,6.82c-2.02,3.76-2.83,7.55-2.43,11.37c0.54,5.1,2.4,9.05,5.6,11.86c3.2,2.81,6.75,5.17,10.66,7.1 c3.91,1.93,6.46,3.23,7.66,3.91c10.37,5.19,18.02,10.47,22.93,15.84c4.92,5.37,7.88,12.91,8.91,22.63 c1.89,18.01-1.78,32.54-11.01,43.58c-9.23,11.04-22.86,17.51-40.87,19.4C429.25,272.38,421.14,271.94,413.54,270.17z"/>
	<path d="M509.81,254.73l0.18-154.71c-0.07-5.31,4.51-8.45,13.76-9.42l10.04-1.06c9.09-0.95,13.67,1.22,13.74,6.54l-0.17,154.71 c0.07,5.31-4.43,8.44-13.51,9.4l-10.04,1.06C514.55,262.21,509.89,260.04,509.81,254.73z"/>
	<path d="M572.32,189.43c-0.71-6.69-1.05-13.02-1.03-18.99c0.01-29,5.3-51.15,15.86-66.44c10.56-15.29,26.91-24.1,49.07-26.42 c7.33-0.77,14.28-0.61,20.84,0.47c4.44,0.82,6.89,3.47,7.36,7.93c0.12,1.12,0.13,2,0.04,2.66c-0.16,6.14-1.32,11.58-3.48,16.32 c-2.16,4.74-4.73,6.7-7.72,5.89c-5.27-1.06-10.37-1.33-15.31-0.81c-9.56,1.01-16.71,6.19-21.45,15.55 c-4.74,9.36-7.12,23.07-7.16,41.12c0.09,5.47,0.38,10.52,0.87,15.14c2.68,25.5,12.3,37.38,28.88,35.64 c3.02-0.32,5.79-0.85,8.29-1.6c2.5-0.74,4.98-1.65,7.45-2.72c0.46-0.21,1.17-0.36,2.13-0.46c2.55-0.27,4.6,0.81,6.14,3.22 c1.54,2.42,2.54,5.78,2.99,10.08c0.91,8.61-1.66,14.92-7.68,18.93c-4.39,2.72-10.81,4.52-19.25,5.41 C599.3,254.51,577.03,234.22,572.32,189.43z"/>
	<path d="M688.15,235.99l0.18-154.71c-0.06-5.15,4.53-8.21,13.78-9.18l10.04-1.06c9.08-0.95,13.65,1.15,13.71,6.29l-0.01,59.7
		 l40.88-4.3l0.01-59.7c-0.06-5.15,4.53-8.21,13.78-9.18l9.8-1.03c9.24-0.97,13.9,1.12,13.95,6.27L804.1,223.8
		 c0.06,5.15-4.54,8.21-13.78,9.18l-9.8,1.03c-9.25,0.97-13.9-1.12-13.95-6.27l0.14-63.1l-40.88,4.3l-0.14,63.1
		 c0.06,5.15-4.46,8.2-13.54,9.16l-10.04,1.06C692.86,243.23,688.21,241.14,688.15,235.99z"/>
	<path d="M836.05,225.4c-1.35-1.39-2.05-3.77-2.08-7.15l0.2-149.88c-0.03-3.38,0.67-5.91,2.1-7.59c1.43-1.68,3.66-2.68,6.69-3
		 l70.52-7.41c3.98-0.42,6.28,2.24,6.88,7.98l0.11,3.37l0.06,7.49c0.2,8.04-2.17,12.32-7.11,12.83l-42.08,4.42l0.06,35.04l37.3-3.92
		 c3.98-0.42,6.28,2.24,6.88,7.98l0.11,3.37l0.06,7.49c0.2,8.04-2.17,12.31-7.11,12.83l-37.29,3.92l0,39.16l42.32-4.45
		 c2.07-0.22,3.62,0.31,4.64,1.57c1.02,1.26,1.68,3.33,1.98,6.2l0.14,3.61l0.06,7.49c0.2,8.04-2.09,12.31-6.87,12.81l-70.77,7.44
		 C839.67,227.31,837.41,226.79,836.05,225.4z"/>
	<path d="M944.91,209l0.19-152.3c-0.04-3.38,0.71-5.91,2.22-7.61c1.52-1.69,3.95-2.71,7.29-3.06l39.92-4.2
		 c13.39-1.41,24.42,0.5,33.11,5.71c8.68,5.22,13.76,14.75,15.21,28.62c0.17,1.59,0.29,4.32,0.38,8.18
		 c0.07,19.01-7.53,33.42-22.77,43.24l0.1,0.96c3.39,1.58,6.55,4.47,9.49,8.67c2.94,4.21,5.07,8.81,6.41,13.83l14.15,44.92l0.78,2.82
		 c-0.03,4.35-4.98,7.05-14.86,8.09l-8.37,0.88c-8.45,0.89-13.22-0.79-14.3-5.02l-12.66-44.59c-1.33-3.4-2.94-5.73-4.84-6.99
		 c-1.91-1.25-4.85-1.66-8.83-1.25l-5.74,0.6l-0.06,54.63c0.06,5.15-4.7,8.23-14.26,9.23l-8.13,0.85
		 C949.77,216.23,944.96,214.16,944.91,209z M995.32,113.79c3.35-0.35,6.27-2.43,8.77-6.24c2.5-3.81,3.79-9.1,3.89-15.88
		 c0.06-0.97-0.01-2.42-0.21-4.33c-0.55-5.26-1.99-8.97-4.31-11.15c-2.32-2.17-5.32-3.06-8.98-2.68l-12.67,1.33l0.13,40.35
		 L995.32,113.79z"/>
	<path d="M1134.96,189.03l0.18-154.71c-0.07-5.31,4.51-8.45,13.75-9.42l10.04-1.06c9.09-0.95,13.67,1.22,13.74,6.54l-0.17,154.71
		 c0.07,5.31-4.43,8.44-13.52,9.4l-10.04,1.06C1139.69,196.51,1135.03,194.34,1134.96,189.03z"/>
	<path d="M1210.34,186.42c-4.47-1.14-8.39-2.74-11.74-4.81c-3.36-2.06-5.19-4.53-5.49-7.4c-0.65-4.6,0.02-9.75,2-15.44
		 c1.98-5.68,4.56-8.7,7.75-9.03c1.11-0.12,2.69,0.28,4.72,1.2c5.56,2.32,10.04,3.9,13.43,4.75c3.39,0.85,7.24,1.05,11.54,0.6
		 c5.26-0.55,9.64-2.58,13.14-6.1c3.5-3.51,4.89-8.69,4.17-15.54c-0.5-4.78-2.43-8.48-5.76-11.12c-3.34-2.63-8.49-5.67-15.46-9.13
		 c-0.87-0.55-1.68-0.99-2.44-1.32c-0.76-0.32-1.39-0.62-1.91-0.89c-9.69-4.78-16.87-9.91-21.56-15.38
		 c-4.68-5.47-7.55-13.22-8.61-23.27c-1.16-11,0.18-20.85,4.03-29.55c3.84-8.7,9.59-15.63,17.27-20.79
		 c7.68-5.16,16.54-8.26,26.58-9.32c5.1-0.54,10.46-0.5,16.09,0.12c5.62,0.62,10.3,1.78,14.02,3.48c4.06,1.83,6.26,4.42,6.62,7.77
		 c0.45,4.3-0.1,9.07-1.64,14.31c-1.55,5.24-3.83,8.02-6.86,8.34c-1.43,0.15-3.88-0.15-7.35-0.92c-6.29-1.6-11.43-2.18-15.42-1.77
		 c-7.49,0.79-12.25,3.06-14.27,6.82c-2.02,3.76-2.83,7.55-2.43,11.37c0.53,5.1,2.4,9.05,5.6,11.86c3.19,2.81,6.75,5.17,10.65,7.1
		 c3.91,1.93,6.46,3.23,7.66,3.91c10.37,5.19,18.02,10.47,22.93,15.84c4.92,5.37,7.89,12.91,8.91,22.63
		 c1.89,18.01-1.78,32.54-11.01,43.58c-9.23,11.04-22.85,17.51-40.86,19.4C1226.04,188.64,1217.93,188.2,1210.34,186.42z"/>
	<path d="M1329.55,168.57l0.08-130.29l-26.54,2.79c-3.99,0.42-6.28-2.24-6.88-7.98l-0.11-3.37l0.18-7.51
		 c-0.2-8.03,2.09-12.31,6.87-12.81L1394-0.15c2.23-0.23,3.9,0.28,4.99,1.53c1.1,1.25,1.81,3.4,2.12,6.42l0.11,3.37l-0.18,7.51
		 c0.12,4.18-0.4,7.29-1.56,9.35c-1.15,2.06-3.01,3.22-5.55,3.49l-26.77,2.81l-0.08,130.29c0.06,5.15-4.54,8.21-13.78,9.18l-9.8,1.03
		 C1334.26,175.81,1329.61,173.73,1329.55,168.57z"/>
    </g>
    <g>
	<path d="M16.56,527.86c-1.36-1.39-2.05-3.77-2.08-7.15l0.2-149.88c-0.04-3.38,0.67-5.91,2.1-7.59c1.43-1.68,3.66-2.68,6.69-3
		 l45.42-4.77c18.01-1.89,31.87,1.93,41.57,11.46c9.7,9.54,15.66,24.82,17.87,45.86c0.59,5.58,0.92,12.55,0.99,20.93
		 c0.08,28.36-4.77,50.05-14.55,65.1c-9.78,15.05-25.11,23.67-45.99,25.86l-45.42,4.77C20.18,529.77,17.91,529.25,16.56,527.86z
		 M67.66,493.12c8.45-0.89,14.49-5.51,18.12-13.87c3.63-8.36,5.48-22.21,5.54-41.55c0.07-6.93-0.26-13.99-1.02-21.17
		 c-1.17-11.15-3.57-19-7.19-23.53c-3.62-4.53-8.78-6.45-15.47-5.75l-15.3,1.61l0.01,105.87L67.66,493.12z"/>
	<path d="M158.08,512.98c-1.35-1.39-2.05-3.77-2.08-7.15l0.2-149.88c-0.04-3.38,0.67-5.91,2.1-7.59c1.43-1.68,3.67-2.68,6.69-3
		 l70.52-7.41c3.98-0.42,6.28,2.24,6.88,7.98l0.11,3.37l0.06,7.49c0.2,8.04-2.17,12.31-7.11,12.83l-42.08,4.42l0.06,35.04l37.29-3.92
		 c3.98-0.42,6.28,2.24,6.88,7.98l0.11,3.37l0.06,7.49c0.2,8.04-2.17,12.31-7.11,12.83l-37.29,3.92l0,39.15l42.31-4.45
		 c2.07-0.22,3.62,0.31,4.64,1.57c1.02,1.26,1.68,3.33,1.98,6.2l0.14,3.61l0.06,7.49c0.2,8.04-2.09,12.31-6.87,12.81l-70.76,7.44
		 C161.71,514.9,159.44,514.37,158.08,512.98z"/>
	<path d="M266.46,496.63l0.18-154.71c-0.08-5.31,4.51-8.45,13.75-9.42l10.04-1.05c9.09-0.95,13.66,1.22,13.74,6.53l-0.18,154.71
		 c0.07,5.31-4.43,8.45-13.51,9.4l-10.04,1.06C271.19,504.12,266.54,501.94,266.46,496.63z"/>
	<path d="M331.49,489.8l-0.06-154.68c-0.06-5.15,4.53-8.21,13.78-9.19l6.22-0.65c3.03-0.32,5.51-0.13,7.43,0.55
		 c1.92,0.69,3.59,2.32,4.99,4.92l42.63,76.73c2.79,5.02,5.51,11.02,8.18,17.99l0.91-0.58c-0.86-5.06-1.41-8.87-1.68-11.42
		 c-0.18-1.75-0.29-4.24-0.3-7.46l0.58-79.58c-0.06-5.15,4.53-8.21,13.78-9.18l5.74-0.6c9.24-0.97,13.9,1.12,13.95,6.27l0.06,154.68
		 c-0.26,5.19-4.93,8.25-14.02,9.21l-4.54,0.48c-3.19,0.34-5.79,0.13-7.8-0.63c-2.02-0.76-3.71-2.35-5.1-4.78l-45.13-79.85
		 c-1.37-2.27-2.66-4.99-3.88-8.17c-1.22-3.17-2.06-5.38-2.51-6.62l-1.36,0.87c0.29,1.26,0.61,2.71,0.94,4.37
		 c0.33,1.66,0.62,3.6,0.86,5.83c0.15,1.43,0.2,3.45,0.15,6.03l-0.33,81.97c0.06,5.16-4.62,8.22-14.02,9.21l-5.74,0.6
		 C335.79,497.08,331.22,494.99,331.49,489.8z"/>
	<path d="M509.5,476.05c-1.35-1.39-2.05-3.78-2.08-7.15l0.2-149.88c-0.04-3.38,0.67-5.91,2.1-7.59c1.43-1.68,3.67-2.68,6.69-3
		 l45.42-4.77c18.01-1.89,31.87,1.93,41.57,11.46c9.7,9.54,15.66,24.82,17.87,45.86c0.59,5.58,0.92,12.55,0.99,20.93
		 c0.08,28.36-4.77,50.05-14.55,65.1c-9.78,15.05-25.11,23.67-45.98,25.86l-45.42,4.77C513.13,477.96,510.86,477.44,509.5,476.05z
		 M560.6,441.31c8.45-0.89,14.49-5.51,18.12-13.87c3.63-8.35,5.48-22.21,5.54-41.55c0.07-6.93-0.26-13.99-1.02-21.17
		 c-1.17-11.15-3.57-19-7.19-23.53c-3.62-4.53-8.78-6.45-15.47-5.75l-15.3,1.61l0.01,105.87L560.6,441.31z"/>
	<path d="M647.53,456.58l0.18-154.71c-0.08-5.31,4.51-8.45,13.75-9.42l10.04-1.06c9.09-0.95,13.66,1.23,13.74,6.53l-0.18,154.71
		 c0.07,5.31-4.43,8.45-13.51,9.4l-10.04,1.06C652.26,464.07,647.6,461.89,647.53,456.58z"/>
	<path d="M754.65,327.13c-4.75,9.2-7.13,22.99-7.14,41.36c0.02,6.29,0.33,12.38,0.95,18.27c1.34,12.75,4.2,21.6,8.59,26.53
		 c4.38,4.94,10.24,7.02,17.57,6.25c3.82-0.4,7.06-1.06,9.7-1.99l-0.08-35.28l-12.19,1.28c-3.82,0.4-6.01-2.03-6.57-7.29
		 c-0.18-1.75-0.25-3.11-0.19-4.09l-0.09-7.73c0.04-4.19,0.6-7.32,1.67-9.36c1.07-2.05,2.81-3.2,5.2-3.45l39.44-4.14
		 c3.03-0.32,5.26,0.21,6.69,1.59c1.43,1.38,2.17,3.76,2.2,7.14l0.08,72.02c0.06,3.7-2.34,7.3-7.21,10.79
		 c-4.87,3.5-10.93,6.43-18.17,8.8c-7.24,2.37-14.13,3.9-20.67,4.59c-18.97,1.99-33.84-1.92-44.62-11.75
		 c-10.78-9.82-17.34-25.89-19.69-48.2c-0.57-5.42-0.88-12.15-0.92-20.21c-0.01-29.16,5.24-51.35,15.73-66.55
		 c10.49-15.2,27.21-24.01,50.16-26.42c7.01-0.74,13.79-0.64,20.33,0.28c6.54,0.92,11.9,2.46,16.07,4.6c4.17,2.14,6.4,4.56,6.69,7.27
		 c0.2,1.91-0.55,4.77-2.24,8.57c-1.7,3.8-3.75,7.25-6.17,10.32c-2.42,3.08-4.58,4.71-6.49,4.91c-0.64,0.07-2.33-0.36-5.09-1.28
		 c-2.76-0.92-5.82-1.65-9.17-2.18c-3.36-0.53-7.35-0.56-11.97-0.07C766.88,312.79,759.4,317.93,754.65,327.13z"/>
	<path d="M846.9,435.63l0.18-154.71c-0.08-5.31,4.51-8.45,13.75-9.42l10.04-1.05c9.09-0.95,13.66,1.22,13.74,6.53l-0.18,154.71
		 c0.07,5.31-4.43,8.45-13.51,9.4l-10.04,1.06C851.64,443.11,846.98,440.94,846.9,435.63z"/>
	<path d="M934.64,426.41l0.08-130.29l-26.54,2.79c-3.99,0.42-6.28-2.24-6.88-7.98l-0.11-3.37l0.18-7.51
		 c-0.2-8.03,2.09-12.31,6.87-12.81l90.84-9.55c2.23-0.24,3.9,0.28,5,1.53c1.1,1.26,1.8,3.4,2.12,6.43l0.11,3.37l-0.18,7.51
		 c0.12,4.18-0.4,7.29-1.56,9.35c-1.15,2.06-3.01,3.22-5.55,3.48l-26.77,2.81l-0.08,130.29c0.06,5.15-4.54,8.21-13.78,9.18l-9.8,1.03
		 C939.35,433.65,934.7,431.56,934.64,426.41z"/>
	<path d="M1010.67,420.83c0.12-1.95,0.37-3.42,0.74-4.43l37.57-157.67c1.12-4.63,5.99-7.4,14.6-8.31l13.39-1.41
		 c8.76-0.92,13.7,0.82,14.81,5.21l38.21,149.71c0.21,0.46,0.37,1.25,0.49,2.36c0.08,0.8,0.07,1.45-0.04,1.94
		 c0.05,3.54-3.36,5.67-10.2,6.39l-11.72,1.23c-7.49,0.79-11.73-0.46-12.72-3.74l-6.17-28.84l-37.3,3.92l-6.5,30.17
		 c-0.45,3.43-4.17,5.52-11.19,6.25l-12.43,1.31C1014.57,425.74,1010.72,424.37,1010.67,420.83z M1084.65,354.32l-10.35-50.16
		 c-1.48-7.9-2.43-13.92-2.86-18.07l-1.2,0.13c-1.17,8.82-2.13,15.05-2.87,18.67l-10.93,52.39L1084.65,354.32z"/>
	<path d="M1148.99,408.83c-1.35-1.39-2.05-3.78-2.08-7.15l0.19-152.3c-0.06-5.15,4.53-8.21,13.78-9.19l9.56-1
		 c9.24-0.97,13.9,1.12,13.95,6.27l-0.08,130.29l35.62-3.74c2.23-0.23,3.9,0.28,4.99,1.53c1.1,1.25,1.81,3.4,2.12,6.42l0.11,3.37
		 l-0.18,7.51c0.11,4.18-0.41,7.29-1.56,9.35c-1.16,2.05-3.01,3.22-5.56,3.48l-64.07,6.73
		 C1152.62,410.75,1150.35,410.22,1148.99,408.83z"/>
	<path d="M1248.92,398.33c-1.35-1.39-2.05-3.77-2.08-7.15l0.2-149.88c-0.03-3.38,0.67-5.91,2.1-7.59c1.43-1.68,3.66-2.68,6.69-3
		 l70.52-7.41c3.98-0.42,6.28,2.24,6.88,7.98l0.11,3.37l0.06,7.49c0.2,8.04-2.17,12.31-7.11,12.83l-42.08,4.42l0.06,35.04l37.3-3.92
		 c3.98-0.42,6.28,2.24,6.88,7.98l0.11,3.37l0.06,7.49c0.2,8.04-2.17,12.31-7.11,12.83l-37.29,3.92l0,39.15l42.32-4.45
		 c2.07-0.22,3.62,0.31,4.64,1.57c1.02,1.26,1.68,3.33,1.98,6.2l0.14,3.61l0.06,7.49c0.2,8.04-2.09,12.31-6.87,12.81l-70.76,7.44
		 C1252.54,400.24,1250.28,399.72,1248.92,398.33z"/>
	<path d="M1367.89,386.19c-4.47-1.14-8.39-2.75-11.74-4.81c-3.36-2.06-5.19-4.53-5.49-7.4c-0.65-4.6,0.02-9.75,2-15.44
		 c1.98-5.68,4.56-8.7,7.75-9.03c1.11-0.12,2.69,0.28,4.72,1.2c5.56,2.32,10.04,3.9,13.43,4.75c3.39,0.85,7.24,1.05,11.55,0.6
		 c5.26-0.55,9.64-2.58,13.14-6.1c3.5-3.51,4.89-8.69,4.17-15.54c-0.5-4.78-2.42-8.49-5.76-11.12c-3.34-2.63-8.49-5.67-15.46-9.13
		 c-0.87-0.55-1.67-0.99-2.43-1.31c-0.76-0.32-1.4-0.62-1.91-0.89c-9.69-4.78-16.87-9.91-21.56-15.38
		 c-4.68-5.47-7.55-13.22-8.61-23.27c-1.16-11,0.18-20.84,4.02-29.55c3.84-8.7,9.6-15.63,17.27-20.79
		 c7.67-5.16,16.53-8.26,26.58-9.32c5.1-0.54,10.46-0.5,16.09,0.12c5.62,0.62,10.3,1.78,14.02,3.48c4.06,1.83,6.27,4.42,6.62,7.77
		 c0.45,4.3-0.1,9.07-1.64,14.31c-1.55,5.24-3.83,8.02-6.86,8.33c-1.43,0.15-3.89-0.15-7.35-0.92c-6.3-1.59-11.43-2.18-15.41-1.77
		 c-7.5,0.79-12.25,3.06-14.27,6.82c-2.02,3.76-2.83,7.55-2.43,11.38c0.54,5.1,2.4,9.05,5.6,11.86c3.19,2.81,6.74,5.17,10.65,7.1
		 c3.91,1.93,6.46,3.23,7.66,3.91c10.37,5.19,18.02,10.47,22.93,15.84c4.92,5.37,7.89,12.91,8.91,22.63
		 c1.89,18.01-1.78,32.54-11.01,43.58c-9.23,11.04-22.86,17.51-40.87,19.4C1383.59,388.41,1375.49,387.97,1367.89,386.19z"/>
	<path d="M1496.43,367.36l0.18-154.71c-0.08-5.31,4.51-8.45,13.75-9.42l10.04-1.06c9.09-0.95,13.66,1.22,13.74,6.53l-0.18,154.71
		 c0.07,5.31-4.43,8.45-13.51,9.4l-10.04,1.06C1501.16,374.84,1496.5,372.67,1496.43,367.36z"/>
	<path d="M1558.93,302.05c-0.71-6.69-1.05-13.02-1.03-18.99c0.01-29,5.3-51.15,15.86-66.44c10.56-15.29,26.91-24.1,49.07-26.42
		 c7.33-0.77,14.28-0.61,20.83,0.47c4.44,0.83,6.89,3.47,7.36,7.93c0.12,1.12,0.13,2,0.04,2.66c-0.16,6.14-1.32,11.58-3.48,16.32
		 c-2.16,4.74-4.73,6.7-7.72,5.89c-5.27-1.06-10.37-1.33-15.31-0.81c-9.56,1.01-16.72,6.19-21.45,15.55
		 c-4.74,9.36-7.12,23.07-7.16,41.12c0.09,5.47,0.38,10.52,0.87,15.14c2.68,25.5,12.31,37.38,28.89,35.64
		 c3.02-0.32,5.79-0.85,8.29-1.6c2.5-0.74,4.98-1.65,7.45-2.72c0.46-0.21,1.17-0.36,2.13-0.46c2.55-0.27,4.59,0.81,6.14,3.22
		 c1.54,2.42,2.54,5.78,2.99,10.08c0.9,8.61-1.66,14.92-7.68,18.94c-4.39,2.72-10.81,4.52-19.25,5.41
		 C1585.91,367.14,1563.64,346.85,1558.93,302.05z"/>
	<path d="M1674.77,348.61l0.18-154.71c-0.06-5.15,4.53-8.21,13.78-9.18l10.04-1.06c9.09-0.95,13.66,1.15,13.72,6.29l-0.01,59.7
		 l40.88-4.3l0.01-59.7c-0.06-5.15,4.53-8.21,13.78-9.18l9.8-1.03c9.24-0.97,13.89,1.12,13.95,6.27l-0.18,154.71
		 c0.06,5.15-4.54,8.21-13.78,9.18l-9.8,1.03c-9.24,0.97-13.9-1.11-13.95-6.27l0.14-63.1l-40.88,4.3l-0.14,63.1
		 c0.06,5.16-4.45,8.2-13.54,9.16l-10.04,1.06C1679.48,355.86,1674.83,353.77,1674.77,348.61z"/>
	<path d="M1831.03,284.22c-1.78-0.86-2.73-2.57-2.83-5.14c-0.07-6.76,1.06-13.24,3.39-19.45c2.33-6.21,5.73-12.53,10.21-18.96
		 l5.08-6.82c4.55-5.8,7.85-10.37,9.92-13.73c2.06-3.36,3.02-6.48,2.88-9.37c0.02-9.02-5.15-12.99-15.51-11.91
		 c-3.19,0.34-6.04,1.16-8.56,2.47c-2.52,1.32-5.02,2.82-7.5,4.53c-2.48,1.71-4.04,2.6-4.67,2.67c-2.07,0.22-4.28-0.8-6.61-3.05
		 c-2.33-2.25-4.34-4.9-6.03-7.95c-1.69-3.04-2.55-5.45-2.57-7.22c0.03-5.8,4.41-10.98,13.11-15.52c8.71-4.54,17.92-7.32,27.65-8.34
		 c13.54-1.42,24.59,0.52,33.12,5.82c8.53,5.31,13.39,13.54,14.56,24.7c0.24,2.23,0.34,3.99,0.31,5.28
		 c0.03,6.44-0.87,12.1-2.69,16.96c-1.83,4.87-4.05,9.05-6.66,12.55c-2.62,3.5-6.24,7.75-10.87,12.74
		 c-5.38,5.56-9.59,10.72-12.63,15.47c-3.05,4.75-5.05,10.24-6,16.46c-0.71,2.49-2.01,4.32-3.9,5.48c-1.89,1.17-4.83,1.96-8.81,2.38
		 l-5.5,0.58C1835.77,285.29,1832.81,285.08,1831.03,284.22z M1825.14,332.81l-0.16-22.22c0.26-5.18,5.09-8.27,14.5-9.26l7.65-0.81
		 c9.72-1.02,14.45,1.06,14.19,6.24l0.16,22.22c-0.26,5.19-5.09,8.27-14.5,9.26l-7.65,0.81
		 C1829.61,340.08,1824.88,338,1825.14,332.81z"/>
    </g>
</svg>
