<?xml version="1.0" standalone="no"?>
<!DOCTYPE svg PUBLIC "-//W3C//DTD SVG 20010904//EN"
 "http://www.w3.org/TR/2001/REC-SVG-20010904/DTD/svg10.dtd">
<svg version="1.0" xmlns="http://www.w3.org/2000/svg"
 width="800.000000pt" height="800.000000pt" viewBox="0 0 800.000000 800.000000"
 preserveAspectRatio="xMidYMid meet">
<metadata>
Created by potrace 1.11, written by Peter Selinger 2001-2013
</metadata>
<g transform="translate(0.000000,800.000000) scale(0.100000,-0.100000)"
fill="#000000" stroke="none">
<path d="M0 4000 l0 -3430 428 0 428 0 0 3430 0 3430 -428 0 -428 0 0 -3430z"/>
<path d="M1265 7408 c-14 -13 -29 -36 -33 -53 -4 -16 -7 -410 -6 -874 l1 -844
27 -24 28 -24 340 1 c360 2 383 4 488 53 101 47 199 138 245 227 49 96 95 228
111 317 2 13 7 35 11 50 10 46 12 523 1 523 -5 0 -7 4 -4 8 6 10 -25 148 -49
217 -39 116 -96 217 -153 273 -73 73 -85 82 -156 115 -109 52 -153 57 -503 57
-320 0 -322 0 -348 -22z m653 -352 c17 -10 44 -33 58 -51 22 -29 57 -120 69
-175 4 -19 14 -85 21 -130 6 -40 6 -365 0 -395 -6 -35 -18 -120 -16 -120 1 0
-4 -13 -10 -30 -7 -16 -14 -41 -16 -54 -8 -38 -40 -94 -70 -120 -45 -39 -91
-50 -204 -51 l-106 0 0 573 0 572 24 5 c49 10 216 -6 250 -24z"/>
<path d="M3063 7413 c-17 -9 -36 -25 -42 -37 -9 -18 -112 -427 -125 -498 -3
-13 -5 -23 -7 -23 -1 0 -3 -9 -4 -20 -1 -11 -10 -49 -20 -85 -9 -36 -18 -72
-20 -80 -2 -8 -10 -42 -18 -75 -9 -33 -18 -71 -21 -85 -2 -14 -34 -144 -69
-290 -36 -146 -75 -305 -87 -355 -23 -94 -23 -96 -39 -160 -18 -68 -14 -89 18
-108 17 -10 42 -17 58 -16 15 0 74 0 129 -1 117 -2 160 12 170 58 3 15 8 34
10 42 2 8 6 33 10 55 3 22 11 49 17 60 6 11 9 21 8 23 -8 7 22 131 33 134 9 4
350 3 383 -1 6 0 11 -9 11 -18 0 -15 15 -92 39 -198 8 -37 13 -60 18 -84 12
-61 50 -73 222 -72 181 1 195 18 154 179 -11 43 -22 88 -25 102 -6 30 -6 29
-49 205 -19 77 -39 156 -43 175 -4 19 -8 37 -9 40 -1 3 -5 19 -9 35 -4 17 -11
46 -16 65 -19 74 -42 167 -50 205 -5 22 -23 96 -40 165 -18 69 -33 134 -36
146 -2 11 -25 104 -50 205 -25 101 -48 198 -51 214 -16 98 -43 110 -253 112
-132 1 -171 -2 -197 -14z m204 -405 c1 -30 12 -119 18 -138 2 -8 7 -28 10 -45
27 -138 33 -168 45 -215 5 -19 11 -51 14 -71 3 -20 8 -42 10 -50 3 -8 8 -25
10 -39 4 -23 18 -88 30 -147 6 -26 15 -25 -172 -24 -62 0 -117 3 -123 6 -5 4
-7 15 -4 25 6 20 63 287 71 335 3 17 9 46 14 65 9 33 19 89 26 135 1 11 3 20
4 20 2 0 4 9 5 20 2 11 6 43 10 70 4 28 8 56 8 63 1 22 23 13 24 -10z"/>
<path d="M3870 7418 c-36 -13 -50 -67 -47 -180 2 -79 6 -109 20 -130 18 -26
19 -26 140 -26 67 0 140 -1 163 -1 l41 -1 0 -720 c0 -775 -3 -737 52 -764 33
-17 251 -15 302 2 37 13 59 42 58 77 0 11 0 331 0 712 l1 692 159 -1 c96 0
167 5 179 11 29 15 35 42 36 154 2 109 -13 162 -47 174 -29 10 -1031 11 -1057
1z"/>
<path d="M5173 7406 l-28 -24 -2 -871 -3 -870 24 -28 24 -27 418 -1 c231 -1
427 3 437 8 33 16 49 72 46 171 -2 65 -8 102 -21 129 l-18 37 -250 0 -250 0 0
213 0 213 208 -1 c150 -1 214 2 233 11 35 17 46 64 44 182 -2 76 -6 98 -22
120 l-20 27 -222 3 -221 2 0 193 0 194 228 -2 c125 0 237 1 250 4 41 7 56 45
59 150 2 96 -8 154 -33 178 -10 10 -105 13 -433 13 l-420 0 -28 -24z"/>
<path d="M6405 7423 c-12 -2 -33 -14 -49 -26 l-27 -22 0 -870 0 -870 26 -22
c28 -24 29 -25 140 -27 91 -3 155 9 179 34 20 19 20 35 20 477 -1 445 -5 570
-18 591 -3 6 -2 13 4 17 5 3 10 0 10 -7 0 -7 23 -58 51 -113 29 -55 57 -110
63 -122 6 -13 14 -23 19 -23 4 0 7 -4 7 -10 0 -5 95 -172 211 -372 116 -200
221 -382 234 -404 29 -50 63 -66 151 -69 87 -3 154 10 179 35 20 20 20 32 20
886 l1 865 -22 20 c-31 29 -78 39 -179 39 -106 0 -169 -22 -177 -61 -6 -32 -1
-953 5 -1006 3 -23 8 -47 12 -53 3 -5 2 -10 -3 -10 -6 0 -22 30 -37 67 -14 36
-46 102 -69 147 -24 45 -52 97 -62 116 -11 19 -23 38 -29 42 -5 4 -6 8 -2 8 5
0 -1 13 -12 29 -12 16 -21 32 -21 35 0 2 -15 31 -33 63 -19 32 -89 159 -157
283 -162 296 -175 316 -212 329 -29 10 -179 13 -223 4z"/>
<path d="M2915 5472 c-128 -13 -270 -84 -371 -187 -53 -54 -127 -192 -159
-295 -9 -30 -19 -62 -22 -70 -4 -8 -6 -18 -5 -21 0 -3 -3 -23 -8 -45 -15 -63
-23 -176 -23 -338 -1 -221 13 -328 63 -476 51 -152 112 -247 210 -325 21 -17
134 -77 150 -80 3 -1 25 -7 50 -14 25 -7 59 -16 75 -19 72 -12 283 -1 360 19
22 6 50 13 62 16 12 3 32 16 45 30 20 21 23 36 25 108 1 46 -3 100 -10 122
-19 62 -68 88 -128 67 -49 -16 -202 -16 -250 1 -57 20 -113 69 -143 126 -15
27 -25 49 -21 49 3 0 -1 12 -8 28 -14 26 -30 87 -44 167 -9 49 -8 376 1 425
21 108 79 251 118 287 12 12 45 33 73 46 44 23 59 25 137 22 49 -3 93 -7 99
-11 6 -3 24 -8 40 -11 61 -9 110 80 115 210 4 110 -28 141 -171 163 -44 7
-213 11 -260 6z"/>
<path d="M1592 5460 c-192 -39 -334 -158 -397 -332 -25 -68 -30 -211 -11 -304
41 -195 140 -306 417 -467 137 -80 189 -146 189 -244 0 -95 -56 -155 -160
-171 -83 -12 -144 6 -305 92 -47 25 -80 20 -110 -16 -39 -46 -52 -81 -62 -160
-9 -80 11 -119 94 -176 35 -25 162 -68 233 -80 55 -9 254 -8 293 2 45 11 140
48 167 65 115 73 202 199 234 340 15 64 16 230 2 279 -3 12 -8 32 -11 44 -14
63 -69 150 -140 222 -42 42 -83 76 -91 76 -8 0 -14 4 -14 8 0 5 -47 35 -105
67 -177 99 -230 155 -239 251 -13 156 127 210 350 136 50 -17 101 -28 112 -25
41 10 83 109 87 205 2 61 -27 99 -103 134 -114 52 -315 77 -430 54z"/>
<path d="M3640 5445 c-19 -6 -41 -23 -47 -36 -10 -18 -13 -223 -13 -882 l1
-858 23 -24 c32 -31 72 -38 215 -34 103 3 124 7 148 25 20 15 28 30 29 53 1
17 4 34 7 37 3 3 1 18 -3 34 -4 16 -6 31 -2 34 7 7 5 116 -2 123 -3 3 -1 15 4
27 4 13 5 29 0 36 -5 7 -4 24 0 36 6 14 5 26 0 29 -6 3 -6 15 0 30 5 13 6 27
1 29 -4 3 -5 25 -1 48 3 24 3 54 0 68 -4 14 -3 34 1 46 4 11 4 27 -1 34 -5 7
-4 23 0 35 5 14 4 27 -2 33 -7 7 59 10 215 9 l225 0 0 -354 c0 -378 -1 -371
51 -398 32 -16 234 -20 289 -6 80 22 74 -56 73 917 0 842 0 868 -19 886 -26
27 -80 37 -195 36 -110 0 -156 -9 -181 -37 -16 -18 -18 -50 -18 -355 0 -239
-4 -336 -12 -338 -9 -3 -385 -2 -423 1 -10 1 -13 75 -13 335 0 370 1 366 -66
385 -45 13 -244 10 -284 -4z"/>
<path d="M5501 5449 c-18 -4 -42 -16 -53 -26 -16 -16 -43 -103 -64 -203 -3
-14 -14 -59 -25 -101 -11 -42 -22 -86 -24 -98 -2 -13 -7 -31 -10 -41 -3 -10
-8 -27 -10 -37 -2 -10 -9 -40 -15 -68 -6 -27 -13 -57 -15 -65 -4 -19 -93 -386
-102 -420 -3 -14 -8 -34 -10 -45 -8 -37 -11 -50 -13 -50 -2 0 -6 -18 -15 -64
-3 -19 -8 -37 -10 -41 -2 -3 -6 -17 -9 -31 -6 -31 -8 -37 -51 -214 -20 -82
-39 -161 -41 -175 -3 -14 -8 -34 -11 -45 -32 -96 -1 -115 188 -115 141 0 182
14 192 67 3 15 8 41 12 58 22 103 37 174 42 200 2 17 9 34 14 40 6 6 88 10
205 10 210 0 197 3 208 -55 2 -14 11 -56 20 -95 10 -38 19 -84 22 -100 18
-113 38 -125 212 -125 179 0 203 18 178 130 -20 90 -87 368 -95 395 -5 17 -13
48 -17 70 -10 52 -10 53 -24 105 -13 44 -17 64 -24 105 -2 11 -6 27 -9 35 -5
13 -53 205 -62 253 -2 10 -27 113 -56 230 -29 117 -55 228 -60 247 -4 19 -10
45 -13 58 -3 12 -8 30 -10 41 -2 10 -9 35 -14 55 -6 20 -8 36 -6 36 3 0 -3 13
-12 30 -29 48 -70 58 -234 57 -80 0 -160 -3 -179 -8z m185 -459 c4 -30 8 -66
10 -80 1 -14 3 -25 4 -25 2 0 9 -34 14 -67 3 -15 7 -36 11 -47 7 -22 14 -53
21 -91 9 -51 12 -66 18 -90 3 -14 8 -36 10 -50 2 -14 12 -61 21 -105 9 -44 19
-90 21 -103 l4 -22 -147 1 c-81 0 -151 3 -155 5 -4 3 -3 15 2 29 5 13 11 41
14 62 5 30 47 238 72 348 2 11 6 34 8 52 3 18 7 36 9 40 3 5 8 29 11 53 4 25
10 59 13 75 9 39 10 45 12 75 3 39 18 5 27 -60z"/>
<path d="M6525 5446 c-17 -7 -36 -20 -43 -28 -10 -13 -13 -194 -13 -883 0
-802 1 -869 17 -886 26 -29 77 -38 198 -35 118 3 161 15 172 50 9 26 9 953 0
1031 l-6 60 58 -115 c31 -63 93 -181 137 -263 90 -165 103 -177 197 -177 78 0
102 26 189 198 39 78 75 145 80 148 5 3 9 14 9 24 0 10 4 20 9 22 8 3 40 66
67 133 11 26 12 21 7 -45 -9 -127 -9 -983 0 -1013 14 -43 49 -54 175 -56 117
-2 178 9 200 37 17 23 17 1750 -1 1773 -20 26 -71 37 -174 37 -101 1 -162 -15
-189 -49 -20 -24 -367 -704 -372 -729 -2 -8 -8 -19 -14 -25 -8 -7 -9 -6 -4 2
6 11 -78 181 -272 553 -107 206 -105 203 -143 225 -28 16 -54 20 -144 22 -72
1 -120 -3 -140 -11z"/>
<path d="M1764 3498 c-110 -19 -139 -27 -196 -53 -121 -56 -212 -147 -273
-273 -52 -107 -65 -142 -81 -227 -2 -11 -6 -31 -10 -45 -37 -164 -32 -545 10
-715 2 -5 6 -28 11 -50 20 -98 97 -250 164 -323 37 -40 114 -102 126 -102 4 0
21 -10 38 -22 18 -13 32 -22 32 -20 0 2 7 1 15 -2 105 -34 129 -37 274 -40
202 -5 328 43 462 174 71 69 166 260 189 378 2 12 6 25 8 30 20 31 39 289 26
350 -4 17 -4 32 0 32 12 0 -1 178 -20 273 -10 49 -33 134 -46 167 -4 8 -7 17
-8 20 -19 57 -81 176 -113 220 -84 114 -237 206 -377 226 -60 9 -187 10 -231
2z m195 -355 c99 -41 145 -139 167 -353 9 -88 11 -368 3 -429 -4 -31 -10 -78
-14 -106 -9 -77 -24 -126 -53 -175 -32 -56 -40 -64 -90 -90 -76 -40 -192 -25
-251 32 -33 32 -77 114 -87 160 -41 210 -50 599 -18 772 7 40 59 128 89 152
16 13 36 29 43 35 6 5 12 7 12 4 0 -3 8 -2 17 4 26 14 142 10 182 -6z"/>
<path d="M4658 3495 c-2 -3 -13 -6 -24 -8 -75 -13 -197 -70 -268 -127 -97 -78
-183 -228 -230 -400 -15 -54 -20 -77 -35 -173 -9 -53 -6 -446 3 -489 3 -16 8
-38 10 -50 14 -80 73 -260 88 -269 5 -3 10 -9 9 -12 -1 -18 22 -67 32 -67 6 0
8 -3 4 -6 -8 -8 38 -69 82 -109 80 -72 199 -136 281 -152 14 -2 41 -8 60 -12
40 -9 205 -7 272 3 86 13 103 17 168 38 71 23 147 62 170 87 35 37 36 64 36
492 -1 461 0 450 -55 471 -29 11 -467 14 -500 3 -35 -11 -48 -52 -50 -158 -2
-102 11 -161 38 -173 9 -4 49 -8 89 -9 40 -1 75 -4 77 -7 10 -9 6 -361 -4
-371 -5 -5 -41 -10 -78 -10 -145 -2 -221 59 -271 214 -38 119 -45 171 -47 343
-1 190 8 267 52 397 30 93 75 149 147 186 43 22 63 26 133 25 85 -1 170 -20
235 -53 20 -10 46 -19 56 -19 47 0 152 156 152 226 0 21 -9 42 -23 58 -41 44
-151 94 -242 112 -11 2 -31 7 -45 10 -29 7 -316 15 -322 9z"/>
<path d="M2869 3482 c-15 -2 -37 -14 -50 -28 l-24 -26 -1 -851 c-1 -469 1
-863 3 -878 8 -41 68 -61 188 -61 166 -2 216 19 214 87 -1 17 0 33 1 38 3 17
2 138 -2 142 -2 3 -1 30 2 60 3 31 3 58 0 60 -3 2 -3 29 0 60 3 30 4 57 2 60
-10 9 -3 158 7 164 19 12 108 3 141 -14 17 -9 34 -24 37 -33 4 -9 10 -19 15
-22 4 -3 9 -15 11 -25 2 -11 7 -27 10 -35 5 -12 47 -162 62 -220 33 -128 77
-266 91 -281 24 -27 86 -41 179 -42 120 0 171 10 194 39 21 27 19 40 -19 154
-10 30 -41 129 -70 220 -98 313 -123 368 -202 433 l-40 33 43 28 c42 28 129
114 129 127 0 4 6 14 13 21 16 16 54 113 63 160 3 18 6 80 6 138 0 257 -121
412 -368 475 -57 15 -116 18 -339 19 -148 1 -282 0 -296 -2z m531 -361 c34
-17 56 -48 72 -107 22 -78 11 -193 -25 -249 -32 -50 -71 -65 -165 -65 l-81 0
0 211 c0 117 2 215 4 219 7 12 168 5 195 -9z"/>
</g>
</svg>
